HIERARCHY 
ROOT hip 
{ 
  OFFSET 0 0 0
  CHANNELS 6 Xposition Yposition Zposition Zrotation Yrotation Xrotation 
  JOINT abdomen 
  { 
    OFFSET 0 0.517203 -0.018288
    CHANNELS 3 Zrotation Xrotation Yrotation 
    JOINT chest 
    { 
      OFFSET 0 0.292608 -0.012192
      CHANNELS 3 Zrotation Xrotation Yrotation 
      JOINT neck 
      { 
        OFFSET 0 0.554735 -0.054864
        CHANNELS 3 Zrotation Xrotation Yrotation 
        JOINT head 
        { 
          OFFSET -0.006096 0.176783 0.03048
          CHANNELS 3 Zrotation Xrotation Yrotation 
          JOINT leftEye 
          { 
            OFFSET 0.103632 0.201168 0.201168
            CHANNELS 3 Zrotation Xrotation Yrotation 
            End Site 
            { 
              OFFSET 0.025 0 0
            } 
          } 
          JOINT rightEye 
          { 
            OFFSET -0.09144 0.201168 0.201168
            CHANNELS 3 Zrotation Xrotation Yrotation 
            End Site 
            { 
              OFFSET 0.025 0 0
            } 
          } 
        } 
      } 
      JOINT rCollar 
      { 
        OFFSET -0.067056 0.481585 -0.12192
        CHANNELS 3 Zrotation Xrotation Yrotation 
        JOINT rShldr 
        { 
          OFFSET -0.219456 -0.0487682 0.036576
          CHANNELS 3 Zrotation Xrotation Yrotation 
          JOINT rForeArm 
          { 
            OFFSET -0.704355 -0.0427875 0.012192
            CHANNELS 3 Zrotation Xrotation Yrotation 
            JOINT rHand 
            { 
              OFFSET -0.564698 0.0193302 0.176784
              CHANNELS 3 Zrotation Xrotation Yrotation 
              JOINT rThumb1 
              { 
                OFFSET -0.03048 -0.0121979 0.085344
                CHANNELS 3 Zrotation Xrotation Yrotation 
                JOINT rThumb2 
                { 
                  OFFSET -0.0842588 -0.0131122 0.085344
                  CHANNELS 3 Zrotation Xrotation Yrotation 
                  End Site 
                  { 
                    OFFSET -0.0445677 -0.0295535 0.0357623
                  } 
                } 
              } 
              JOINT rIndex1 
              { 
                OFFSET -0.193987 0.0234573 0.140208
                CHANNELS 3 Zrotation Xrotation Yrotation 
                JOINT rIndex2 
                { 
                  OFFSET -0.0635143 -0.0221043 0.0391345
                  CHANNELS 3 Zrotation Xrotation Yrotation 
                  End Site 
                  { 
                    OFFSET -0.0406298 -0.00587005 0.0291255
                  } 
                } 
              } 
              JOINT rMid1 
              { 
                OFFSET -0.206179 0.0295532 0.085344
                CHANNELS 3 Zrotation Xrotation Yrotation 
                JOINT rMid2 
                { 
                  OFFSET -0.0775413 -0.0147526 0.0266175
                  CHANNELS 3 Zrotation Xrotation Yrotation 
                  End Site 
                  { 
                    OFFSET -0.0621368 -0.00822258 0.0209355
                  } 
                } 
              } 
              JOINT rRing1 
              { 
                OFFSET -0.220706 0.0136669 0.0379195
                CHANNELS 3 Zrotation Xrotation Yrotation 
                JOINT rRing2 
                { 
                  OFFSET -0.0652335 -0.0204945 -0.00049622
                  CHANNELS 3 Zrotation Xrotation Yrotation 
                  End Site 
                  { 
                    OFFSET -0.0584605 -0.0073513 0.0042032
                  } 
                } 
              } 
              JOINT rPinky1 
              { 
                OFFSET -0.206801 -0.00119476 -0.01146
                CHANNELS 3 Zrotation Xrotation Yrotation 
                JOINT rPinky2 
                { 
                  OFFSET -0.0456835 -0.0161846 -0.0175246
                  CHANNELS 3 Zrotation Xrotation Yrotation 
                  End Site 
                  { 
                    OFFSET -0.0423063 -0.0129417 -0.0151793
                  } 
                } 
              } 
            } 
          } 
        } 
      } 
      JOINT lCollar 
      { 
        OFFSET 0.067056 0.481585 -0.12192
        CHANNELS 3 Zrotation Xrotation Yrotation 
        JOINT lShldr 
        { 
          OFFSET 0.219456 -0.0487682 0.036576
          CHANNELS 3 Zrotation Xrotation Yrotation 
          JOINT lForeArm 
          { 
            OFFSET 0.704355 -0.0427875 0.012192
            CHANNELS 3 Zrotation Xrotation Yrotation 
            JOINT lHand 
            { 
              OFFSET 0.564698 0.0193302 0.176784
              CHANNELS 3 Zrotation Xrotation Yrotation 
              JOINT lThumb1 
              { 
                OFFSET 0.03048 -0.0121979 0.085344
                CHANNELS 3 Zrotation Xrotation Yrotation 
                JOINT lThumb2 
                { 
                  OFFSET 0.0842588 -0.0131122 0.085344
                  CHANNELS 3 Zrotation Xrotation Yrotation 
                  End Site 
                  { 
                    OFFSET 0.0445677 -0.0295535 0.0357623
                  } 
                } 
              } 
              JOINT lIndex1 
              { 
                OFFSET 0.193987 0.0234573 0.140208
                CHANNELS 3 Zrotation Xrotation Yrotation 
                JOINT lIndex2 
                { 
                  OFFSET 0.0635143 -0.0221043 0.0391345
                  CHANNELS 3 Zrotation Xrotation Yrotation 
                  End Site 
                  { 
                    OFFSET 0.0406298 -0.00587005 0.0291255
                  } 
                } 
              } 
              JOINT lMid1 
              { 
                OFFSET 0.206179 0.0295532 0.085344
                CHANNELS 3 Zrotation Xrotation Yrotation 
                JOINT lMid2 
                { 
                  OFFSET 0.0775413 -0.0147526 0.0266175
                  CHANNELS 3 Zrotation Xrotation Yrotation 
                  End Site 
                  { 
                    OFFSET 0.0621368 -0.00822258 0.0209355
                  } 
                } 
              } 
              JOINT lRing1 
              { 
                OFFSET 0.220706 0.0136669 0.0379195
                CHANNELS 3 Zrotation Xrotation Yrotation 
                JOINT lRing2 
                { 
                  OFFSET 0.0652335 -0.0204945 -0.00049622
                  CHANNELS 3 Zrotation Xrotation Yrotation 
                  End Site 
                  { 
                    OFFSET 0.0584605 -0.0073513 0.0042032
                  } 
                } 
              } 
              JOINT lPinky1 
              { 
                OFFSET 0.206801 -0.00119476 -0.01146
                CHANNELS 3 Zrotation Xrotation Yrotation 
                JOINT lPinky2 
                { 
                  OFFSET 0.0456835 -0.0161846 -0.0175246
                  CHANNELS 3 Zrotation Xrotation Yrotation 
                  End Site 
                  { 
                    OFFSET 0.0423063 -0.0129417 -0.0151793
                  } 
                } 
              } 
            } 
          } 
        } 
      } 
    } 
  } 
  JOINT rButtock 
  { 
    OFFSET -0.219456 0.108771 0.03048
    CHANNELS 3 Zrotation Xrotation Yrotation 
    JOINT rThigh 
    { 
      OFFSET 0 -0.0426718 -0.054864
      CHANNELS 3 Zrotation Xrotation Yrotation 
      JOINT rShin 
      { 
        OFFSET 0 -0.920498 0.018288
        CHANNELS 3 Zrotation Xrotation Yrotation 
        JOINT rFoot 
        { 
          OFFSET 0.018288 -1.12776 -0.128016
          CHANNELS 3 Zrotation Xrotation Yrotation 
          End Site 
          { 
            OFFSET -0.0280525 -0.092491 0.302575
          } 
        } 
      } 
    } 
  } 
  JOINT lButtock 
  { 
    OFFSET 0.219456 0.108771 0.03048
    CHANNELS 3 Zrotation Xrotation Yrotation 
    JOINT lThigh 
    { 
      OFFSET 0 -0.0426718 -0.054864
      CHANNELS 3 Zrotation Xrotation Yrotation 
      JOINT lShin 
      { 
        OFFSET 0 -0.920498 0.018288
        CHANNELS 3 Zrotation Xrotation Yrotation 
        JOINT lFoot 
        { 
          OFFSET -0.018288 -1.12776 -0.128016
          CHANNELS 3 Zrotation Xrotation Yrotation 
          End Site 
          { 
            OFFSET 0.0280525 -0.092491 0.302575
          } 
        } 
      } 
    } 
  } 
} 
MOTION 
Frames:	7 
Frame Time:	0.00833333 
0.0720125 0.88324 0.65508 -0.3885 -0.5324 -99.3707 -1.15625 15.6966 0.0725577 1.1934 -9.22363 0.422252 -3.56392 19.1192 3.24985 21.0063 -35.1103 13.0629 -0 0 0 -0 0 0 -4.13952e-14 1.29875e-13 -7.66563e-15 53.8573 8.99338 -15.7396 -25.5582 -47.0811 97.8893 -0.293596 -15.252 -2.19598 5.72426e-11 2.09694e-10 -2.32277e-10 1.00098e-10 3.61117e-10 -4.00217e-10 5.72494e-11 2.09697e-10 -2.32286e-10 7.73091 5.47488 0.417314 5.72393e-11 2.09695e-10 -2.32279e-10 2.90554 0.965183 0.102902 5.72563e-11 2.09701e-10 -2.32282e-10 10.2786 0.731801 0.0259123 5.72424e-11 2.09701e-10 -2.3227e-10 2.22167 -0.733487 -0.20892 -4.13889e-14 1.29868e-13 -7.83025e-15 -32.733 -44.3964 9.73521 27.9367 -40.7495 -85.2648 2.38425 -39.402 6.63442 5.80625e-10 1.74755e-09 1.72382e-10 9.988e-10 2.99564e-09 3.16355e-10 5.8062e-10 1.74756e-09 1.72392e-10 -7.73091 5.47488 -0.417314 5.80626e-10 1.74756e-09 1.72386e-10 -2.90554 0.965183 -0.102902 5.80618e-10 1.74755e-09 1.72379e-10 -10.2786 0.731801 -0.0259123 5.8063e-10 1.74756e-09 1.72374e-10 -2.22167 -0.733487 0.20892 -2.03217e-16 0 -3.88251e-19 -22.5279 0.851302 3.26686 -0.105063 12.009 -0.7029 -3.04002 -20.6497 -23.6419 2.03217e-16 0 3.88251e-19 24.2301 0.408775 -6.65064 0.0799869 18.7799 -0.943606 -1.29319 -4.16404 15.3307 
0.0726475 0.882058 0.655928 -0.5054 -0.5371 -99.3377 -0.984297 15.9435 0.199414 0.999718 -9.36268 0.457897 -3.31651 18.941 3.12878 20.683 -34.6425 12.6438 -0 0 0 -0 0 0 -3.989e-14 1.56519e-13 -1.12438e-14 53.5883 7.28453 -16.2277 -25.4535 -47.2619 98.2883 -0.337615 -16.3255 -2.35898 9.83585e-13 3.2595e-10 -3.36377e-10 2.19327e-12 5.6119e-10 -5.78895e-10 9.92408e-13 3.25952e-10 -3.36392e-10 7.73091 5.47488 0.417314 9.79935e-13 3.25952e-10 -3.36377e-10 2.90554 0.965183 0.102902 9.95044e-13 3.25956e-10 -3.36378e-10 10.2786 0.731801 0.0259123 9.81885e-13 3.25956e-10 -3.36369e-10 2.22167 -0.733487 -0.20892 -3.99246e-14 1.56517e-13 -1.1368e-14 -32.0241 -46.4948 9.4419 28.008 -40.3881 -84.6083 2.52063 -40.2174 6.83671 6.79683e-10 2.16847e-09 -2.12451e-11 1.17763e-09 3.73833e-09 -1.68899e-11 6.7968e-10 2.16848e-09 -2.12377e-11 -7.73091 5.47488 -0.417314 6.79685e-10 2.16847e-09 -2.12453e-11 -2.90554 0.965183 -0.102902 6.79677e-10 2.16847e-09 -2.12512e-11 -10.2786 0.731801 -0.0259123 6.79688e-10 2.16847e-09 -2.12596e-11 -2.22167 -0.733487 0.20892 -2.03217e-16 0 -3.88251e-19 -22.5405 0.750512 3.19915 -0.111748 12.2917 -0.747712 -3.13162 -21.5337 -23.1964 2.03217e-16 0 3.88251e-19 24.4952 0.461649 -6.28624 0.0802478 18.8675 -0.952652 -1.35594 -3.85047 15.3614 
0.0743975 0.881893 0.657455 -0.6722 -0.5587 -99.6151 -0.820577 16.2186 0.341511 0.814232 -9.51086 0.497407 -3.06547 18.7884 3.01129 20.3792 -34.2217 12.249 -0 0 0 -0 0 0 -3.6819e-14 1.71597e-13 -1.3449e-14 53.2912 5.60431 -16.7314 -25.3592 -47.4203 98.6423 -0.385061 -17.3868 -2.52208 -5.38692e-11 4.16907e-10 -4.1228e-10 -9.33163e-11 7.17803e-10 -7.09094e-10 -5.38582e-11 4.16908e-10 -4.12299e-10 7.73091 5.47488 0.417314 -5.3873e-11 4.16911e-10 -4.12278e-10 2.90554 0.965183 0.102902 -5.38601e-11 4.16912e-10 -4.12277e-10 10.2786 0.731801 0.0259123 -5.38727e-11 4.16913e-10 -4.1227e-10 2.22167 -0.733487 -0.20892 -3.68953e-14 1.71598e-13 -1.35453e-14 -31.49 -48.5164 9.02567 28.0744 -40.0106 -83.9355 2.56607 -40.4955 6.90545 7.25728e-10 2.41438e-09 -2.14248e-10 1.26458e-09 4.17894e-09 -3.50402e-10 7.25726e-10 2.4144e-09 -2.14244e-10 -7.73091 5.47488 -0.417314 7.2573e-10 2.41438e-09 -2.14252e-10 -2.90554 0.965183 -0.102902 7.25723e-10 2.41438e-09 -2.14258e-10 -10.2786 0.731801 -0.0259123 7.25734e-10 2.41439e-09 -2.14269e-10 -2.22167 -0.733487 0.20892 -2.03217e-16 0 -3.88251e-19 -22.5345 0.688095 3.14423 -0.117267 12.5388 -0.786612 -3.1875 -22.3025 -22.7847 2.03217e-16 0 3.88251e-19 24.7513 0.514317 -5.93469 0.080625 18.9712 -0.959372 -1.43891 -3.60672 15.1087 
0.07421 0.882013 0.656063 -0.7543 -0.6395 -99.7328 -0.674838 16.4562 0.499078 0.645679 -9.64778 0.538899 -2.84885 18.7084 2.91357 20.1317 -33.9458 11.9364 -0 0 0 -0 0 0 -3.33466e-14 1.64989e-13 -1.1281e-14 52.9247 4.05733 -17.2052 -25.2875 -47.5362 98.9069 -0.433871 -18.3956 -2.67897 -8.95453e-11 4.29817e-10 -4.11907e-10 -1.55419e-10 7.40296e-10 -7.08413e-10 -8.9533e-11 4.29817e-10 -4.1193e-10 7.73091 5.47488 0.417314 -8.95488e-11 4.29821e-10 -4.11904e-10 2.90554 0.965183 0.102902 -8.95379e-11 4.2982e-10 -4.11903e-10 10.2786 0.731801 0.0259123 -8.95499e-11 4.29822e-10 -4.11898e-10 2.22167 -0.733487 -0.20892 -3.34473e-14 1.64993e-13 -1.13804e-14 -31.2632 -50.3777 8.50659 28.1333 -39.6425 -83.2835 2.42649 -39.7338 6.70857 6.6195e-10 2.24546e-09 -3.32546e-10 1.15826e-09 3.89664e-09 -5.56888e-10 6.61949e-10 2.24548e-09 -3.32543e-10 -7.73091 5.47488 -0.417314 6.61951e-10 2.24546e-09 -3.32552e-10 -2.90554 0.965183 -0.102902 6.61946e-10 2.24546e-09 -3.32558e-10 -10.2786 0.731801 -0.0259123 6.61956e-10 2.24546e-09 -3.32572e-10 -2.22167 -0.733487 0.20892 -2.03217e-16 0 -3.88251e-19 -22.507 0.695588 3.1211 -0.120107 12.6666 -0.808205 -3.23876 -22.7158 -22.6329 2.03217e-16 0 3.88251e-19 24.9952 0.527515 -5.57746 0.08099 19.0581 -0.959189 -1.45954 -3.64796 14.808 
0.073575 0.8816 0.655083 -0.7571 -0.7798 -99.6739 -0.544381 16.6458 0.676495 0.500066 -9.77072 0.582988 -2.66122 18.6832 2.84335 19.9236 -33.7816 11.7096 -0 0 0 -0 0 0 -2.90654e-14 1.23316e-13 -7.58254e-16 52.4786 2.67896 -17.6361 -25.2481 -47.5982 99.0506 -0.481198 -19.31 -2.82291 -9.88445e-11 3.1699e-10 -2.85601e-10 -1.71505e-10 5.46676e-10 -4.91594e-10 -9.8832e-11 3.16989e-10 -2.85623e-10 7.73091 5.47488 0.417314 -9.8847e-11 3.16992e-10 -2.85598e-10 2.90554 0.965183 0.102902 -9.88376e-11 3.16991e-10 -2.85597e-10 10.2786 0.731801 0.0259123 -9.88493e-11 3.16993e-10 -2.85594e-10 2.22167 -0.733487 -0.20892 -2.91618e-14 1.2332e-13 -9.15885e-16 -31.4736 -52.2274 7.80566 28.1932 -39.2551 -82.5848 2.0075 -37.1247 6.08072 4.03109e-10 1.3543e-09 -3.5237e-10 7.09822e-10 2.35808e-09 -5.96999e-10 4.03108e-10 1.35432e-09 -3.52366e-10 -7.73091 5.47488 -0.417314 4.03111e-10 1.3543e-09 -3.52376e-10 -2.90554 0.965183 -0.102902 4.03106e-10 1.3543e-09 -3.52383e-10 -10.2786 0.731801 -0.0259123 4.03115e-10 1.3543e-09 -3.52397e-10 -2.22167 -0.733487 0.20892 -2.03217e-16 0 -3.88251e-19 -22.4496 0.80436 3.14001 -0.11948 12.6209 -0.805055 -3.30669 -22.6092 -22.8883 2.03217e-16 0 3.88251e-19 25.2433 0.479301 -5.17658 0.0811028 19.1241 -0.949171 -1.39821 -4.10203 14.429 
0.0727825 0.88139 0.653603 -0.729 -0.8735 -99.7314 -0.425879 16.8199 0.872238 0.371527 -9.88962 0.630311 -2.48699 18.6981 2.79072 19.7397 -33.6978 11.5389 -0 0 0 -0 0 0 -2.35937e-14 5.55341e-14 1.54586e-14 51.9819 1.40916 -18.0465 -25.2344 -47.6206 99.1009 -0.527403 -20.1619 -2.95847 -9.20647e-11 1.17767e-10 -7.12822e-11 -1.59561e-10 2.04566e-10 -1.23681e-10 -9.20526e-11 1.17765e-10 -7.13023e-11 7.73091 5.47488 0.417314 -9.20657e-11 1.17766e-10 -7.12802e-11 2.90554 0.965183 0.102902 -9.20578e-11 1.17766e-10 -7.12806e-11 10.2786 0.731801 0.0259123 -9.20694e-11 1.17768e-10 -7.12778e-11 2.22167 -0.733487 -0.20892 -2.36689e-14 5.55367e-14 1.52039e-14 -32.0607 -54.0494 6.9028 28.2498 -38.8439 -81.8489 1.50226 -33.1503 5.22933 2.8684e-12 -5.00286e-11 -3.14569e-10 1.39379e-11 -7.19046e-11 -5.40425e-10 2.86676e-12 -5.002e-11 -3.14562e-10 -7.73091 5.47488 -0.417314 2.86912e-12 -5.00298e-11 -3.14573e-10 -2.90554 0.965183 -0.102902 2.86626e-12 -5.00308e-11 -3.1458e-10 -10.2786 0.731801 -0.0259123 2.87345e-12 -5.00269e-11 -3.14594e-10 -2.22167 -0.733487 0.20892 -2.03217e-16 0 -3.88251e-19 -22.3665 0.989932 3.1891 -0.116449 12.4571 -0.784675 -3.37019 -22.1432 -23.3994 2.03217e-16 0 3.88251e-19 25.4929 0.394314 -4.75297 0.0810578 19.1852 -0.932315 -1.30916 -4.83314 13.8781 
0.0720425 0.881525 0.65299 -0.6857 -0.9623 -99.9189 -0.327474 16.9779 1.07749 0.250925 -10.0032 0.678999 -2.34865 18.8041 2.74515 19.6161 -33.7964 11.4294 -0 0 0 -0 0 0 -1.81345e-14 -1.49683e-14 3.04067e-14 51.4569 0.207905 -18.4427 -25.2344 -47.6217 99.1013 -0.575622 -21.0218 -3.0965 -7.76833e-11 -9.00578e-11 1.47758e-10 -1.34467e-10 -1.52265e-10 2.52281e-10 -7.76719e-11 -9.00606e-11 1.47741e-10 7.73091 5.47488 0.417314 -7.76827e-11 -9.00613e-11 1.47759e-10 2.90554 0.965183 0.102902 -7.76762e-11 -9.00607e-11 1.47757e-10 10.2786 0.731801 0.0259123 -7.76876e-11 -9.00586e-11 1.4776e-10 2.22167 -0.733487 -0.20892 -1.81884e-14 -1.49674e-14 3.0058e-14 -32.8184 -55.5129 5.9433 28.2905 -38.4783 -81.2156 1.13922 -29.2518 4.49296 -3.87232e-10 -1.43269e-09 -2.41984e-10 -6.65463e-10 -2.46693e-09 -4.23436e-10 -3.87234e-10 -1.43269e-09 -2.41974e-10 -7.73091 5.47488 -0.417314 -3.87231e-10 -1.4327e-09 -2.41986e-10 -2.90554 0.965183 -0.102902 -3.87233e-10 -1.4327e-09 -2.41994e-10 -10.2786 0.731801 -0.0259123 -3.87227e-10 -1.43269e-09 -2.42008e-10 -2.22167 -0.733487 0.20892 -2.03217e-16 0 -3.88251e-19 -22.274 1.20006 3.25431 -0.112432 12.2554 -0.75805 -3.40669 -21.5633 -23.9464 2.03217e-16 0 3.88251e-19 25.7119 0.303184 -4.37637 0.0812219 19.2385 -0.912936 -1.22036 -5.66126 13.2947 
